<mxfile host="65bd71144e">
    <diagram id="LpqWkuAaXL5CNcw08eNq" name="Page-1">
        <mxGraphModel dx="1137" dy="535" grid="1" gridSize="10" guides="1" tooltips="1" connect="1" arrows="1" fold="1" page="1" pageScale="1" pageWidth="1169" pageHeight="827" math="0" shadow="0">
            <root>
                <mxCell id="0"/>
                <mxCell id="1" parent="0"/>
                <mxCell id="1218" value="i = 0" style="text;html=1;strokeColor=none;fillColor=none;align=center;verticalAlign=middle;whiteSpace=wrap;rounded=0;fontSize=12;fontColor=#000000;" parent="1" vertex="1">
                    <mxGeometry x="301" y="220" width="60" height="30" as="geometry"/>
                </mxCell>
                <mxCell id="1219" value="Pattern" style="text;html=1;strokeColor=none;fillColor=none;align=right;verticalAlign=middle;whiteSpace=wrap;rounded=0;fontSize=12;fontColor=#000000;" parent="1" vertex="1">
                    <mxGeometry x="250" y="263" width="60" height="30" as="geometry"/>
                </mxCell>
                <mxCell id="1220" value="" style="shape=table;startSize=0;container=1;collapsible=0;childLayout=tableLayout;shadow=0;sketch=0;strokeWidth=1;rounded=1;fontSize=12;fillColor=none;fontColor=#000000;" parent="1" vertex="1">
                    <mxGeometry x="318" y="258" width="240" height="40" as="geometry"/>
                </mxCell>
                <mxCell id="1221" value="" style="shape=tableRow;horizontal=0;startSize=0;swimlaneHead=0;swimlaneBody=0;top=0;left=0;bottom=0;right=0;collapsible=0;dropTarget=0;fillColor=none;points=[[0,0.5],[1,0.5]];portConstraint=eastwest;shadow=0;sketch=0;strokeColor=default;strokeWidth=1;rounded=1;fontSize=12;fontColor=#000000;" parent="1220" vertex="1">
                    <mxGeometry width="240" height="40" as="geometry"/>
                </mxCell>
                <mxCell id="1222" value="B" style="shape=partialRectangle;html=1;whiteSpace=wrap;connectable=0;overflow=hidden;top=0;left=0;bottom=0;right=0;pointerEvents=1;shadow=0;sketch=0;strokeWidth=1;rounded=1;fontSize=12;fillColor=none;fontColor=#000000;" parent="1221" vertex="1">
                    <mxGeometry width="30" height="40" as="geometry">
                        <mxRectangle width="30" height="40" as="alternateBounds"/>
                    </mxGeometry>
                </mxCell>
                <mxCell id="1223" value="C" style="shape=partialRectangle;html=1;whiteSpace=wrap;connectable=0;overflow=hidden;top=0;left=0;bottom=0;right=0;pointerEvents=1;shadow=0;sketch=0;strokeWidth=1;rounded=1;fontSize=12;fillColor=none;fontColor=#000000;" parent="1221" vertex="1">
                    <mxGeometry x="30" width="30" height="40" as="geometry">
                        <mxRectangle width="30" height="40" as="alternateBounds"/>
                    </mxGeometry>
                </mxCell>
                <mxCell id="1224" value="A" style="shape=partialRectangle;html=1;whiteSpace=wrap;connectable=0;overflow=hidden;top=0;left=0;bottom=0;right=0;pointerEvents=1;shadow=0;sketch=0;strokeWidth=1;rounded=1;fontSize=12;fillColor=none;fontColor=#000000;" parent="1221" vertex="1">
                    <mxGeometry x="60" width="30" height="40" as="geometry">
                        <mxRectangle width="30" height="40" as="alternateBounds"/>
                    </mxGeometry>
                </mxCell>
                <mxCell id="1225" value="C" style="shape=partialRectangle;html=1;whiteSpace=wrap;connectable=0;overflow=hidden;top=0;left=0;bottom=0;right=0;pointerEvents=1;shadow=0;sketch=0;strokeWidth=1;rounded=1;fontSize=12;fillColor=none;fontColor=#000000;" parent="1221" vertex="1">
                    <mxGeometry x="90" width="30" height="40" as="geometry">
                        <mxRectangle width="30" height="40" as="alternateBounds"/>
                    </mxGeometry>
                </mxCell>
                <mxCell id="1226" value="B" style="shape=partialRectangle;html=1;whiteSpace=wrap;connectable=0;overflow=hidden;top=0;left=0;bottom=0;right=0;pointerEvents=1;shadow=0;sketch=0;strokeWidth=1;rounded=1;fontSize=12;fillColor=none;fontColor=#000000;" parent="1221" vertex="1">
                    <mxGeometry x="120" width="30" height="40" as="geometry">
                        <mxRectangle width="30" height="40" as="alternateBounds"/>
                    </mxGeometry>
                </mxCell>
                <mxCell id="1227" value="C" style="shape=partialRectangle;html=1;whiteSpace=wrap;connectable=0;overflow=hidden;top=0;left=0;bottom=0;right=0;pointerEvents=1;shadow=0;sketch=0;strokeWidth=1;rounded=1;fontSize=12;fillColor=none;fontColor=#000000;" parent="1221" vertex="1">
                    <mxGeometry x="150" width="30" height="40" as="geometry">
                        <mxRectangle width="30" height="40" as="alternateBounds"/>
                    </mxGeometry>
                </mxCell>
                <mxCell id="1228" value="B" style="shape=partialRectangle;html=1;whiteSpace=wrap;connectable=0;overflow=hidden;top=0;left=0;bottom=0;right=0;pointerEvents=1;shadow=0;sketch=0;strokeWidth=1;rounded=1;fontSize=12;fillColor=none;fontColor=#000000;" parent="1221" vertex="1">
                    <mxGeometry x="180" width="30" height="40" as="geometry">
                        <mxRectangle width="30" height="40" as="alternateBounds"/>
                    </mxGeometry>
                </mxCell>
                <mxCell id="1229" value="C" style="shape=partialRectangle;html=1;whiteSpace=wrap;connectable=0;overflow=hidden;top=0;left=0;bottom=0;right=0;pointerEvents=1;shadow=0;sketch=0;strokeWidth=1;rounded=1;fontSize=12;fillColor=none;fontColor=#000000;" parent="1221" vertex="1">
                    <mxGeometry x="210" width="30" height="40" as="geometry">
                        <mxRectangle width="30" height="40" as="alternateBounds"/>
                    </mxGeometry>
                </mxCell>
                <mxCell id="1386" value="" style="shape=table;startSize=0;container=1;collapsible=0;childLayout=tableLayout;shadow=0;sketch=0;strokeColor=default;strokeWidth=1;fillColor=none;gradientColor=none;rounded=1;fontSize=12;fontColor=#000000;" parent="1" vertex="1">
                    <mxGeometry x="320" y="360" width="240" height="320" as="geometry"/>
                </mxCell>
                <mxCell id="1387" value="" style="shape=tableRow;horizontal=0;startSize=0;swimlaneHead=0;swimlaneBody=0;top=0;left=0;bottom=0;right=0;collapsible=0;dropTarget=0;fillColor=none;points=[[0,0.5],[1,0.5]];portConstraint=eastwest;shadow=0;sketch=0;strokeColor=default;strokeWidth=1;rounded=1;fontSize=12;fontColor=#000000;" parent="1386" vertex="1">
                    <mxGeometry width="240" height="40" as="geometry"/>
                </mxCell>
                <mxCell id="1388" value="" style="shape=partialRectangle;html=1;whiteSpace=wrap;connectable=0;overflow=hidden;top=0;left=0;bottom=0;right=0;pointerEvents=1;shadow=0;sketch=0;strokeWidth=1;fillColor=none;rounded=1;strokeColor=default;fontSize=12;fontColor=#000000;" parent="1387" vertex="1">
                    <mxGeometry width="30" height="40" as="geometry">
                        <mxRectangle width="30" height="40" as="alternateBounds"/>
                    </mxGeometry>
                </mxCell>
                <mxCell id="1389" value="" style="shape=partialRectangle;html=1;whiteSpace=wrap;connectable=0;overflow=hidden;top=0;left=0;bottom=0;right=0;pointerEvents=1;shadow=0;sketch=0;strokeWidth=1;fillColor=none;rounded=1;strokeColor=default;fontSize=12;fontColor=#000000;" parent="1387" vertex="1">
                    <mxGeometry x="30" width="30" height="40" as="geometry">
                        <mxRectangle width="30" height="40" as="alternateBounds"/>
                    </mxGeometry>
                </mxCell>
                <mxCell id="1390" value="" style="shape=partialRectangle;html=1;whiteSpace=wrap;connectable=0;overflow=hidden;top=0;left=0;bottom=0;right=0;pointerEvents=1;shadow=0;sketch=0;strokeWidth=1;fillColor=none;rounded=1;strokeColor=default;fontSize=12;fontColor=#000000;" parent="1387" vertex="1">
                    <mxGeometry x="60" width="30" height="40" as="geometry">
                        <mxRectangle width="30" height="40" as="alternateBounds"/>
                    </mxGeometry>
                </mxCell>
                <mxCell id="1391" value="" style="shape=partialRectangle;html=1;whiteSpace=wrap;connectable=0;overflow=hidden;top=0;left=0;bottom=0;right=0;pointerEvents=1;shadow=0;sketch=0;strokeWidth=1;fillColor=none;rounded=1;strokeColor=default;fontSize=12;fontColor=#000000;" parent="1387" vertex="1">
                    <mxGeometry x="90" width="30" height="40" as="geometry">
                        <mxRectangle width="30" height="40" as="alternateBounds"/>
                    </mxGeometry>
                </mxCell>
                <mxCell id="1392" value="" style="shape=partialRectangle;html=1;whiteSpace=wrap;connectable=0;overflow=hidden;top=0;left=0;bottom=0;right=0;pointerEvents=1;shadow=0;sketch=0;strokeWidth=1;fillColor=none;rounded=1;strokeColor=default;fontSize=12;fontColor=#000000;" parent="1387" vertex="1">
                    <mxGeometry x="120" width="30" height="40" as="geometry">
                        <mxRectangle width="30" height="40" as="alternateBounds"/>
                    </mxGeometry>
                </mxCell>
                <mxCell id="1393" value="" style="shape=partialRectangle;html=1;whiteSpace=wrap;connectable=0;overflow=hidden;top=0;left=0;bottom=0;right=0;pointerEvents=1;shadow=0;sketch=0;strokeWidth=1;fillColor=none;rounded=1;strokeColor=default;fontSize=12;fontColor=#000000;" parent="1387" vertex="1">
                    <mxGeometry x="150" width="30" height="40" as="geometry">
                        <mxRectangle width="30" height="40" as="alternateBounds"/>
                    </mxGeometry>
                </mxCell>
                <mxCell id="1394" value="" style="shape=partialRectangle;html=1;whiteSpace=wrap;connectable=0;overflow=hidden;top=0;left=0;bottom=0;right=0;pointerEvents=1;shadow=0;sketch=0;strokeWidth=1;fillColor=none;rounded=1;strokeColor=default;fontSize=12;fontColor=#000000;" parent="1387" vertex="1">
                    <mxGeometry x="180" width="30" height="40" as="geometry">
                        <mxRectangle width="30" height="40" as="alternateBounds"/>
                    </mxGeometry>
                </mxCell>
                <mxCell id="1395" value="" style="shape=partialRectangle;html=1;whiteSpace=wrap;connectable=0;overflow=hidden;top=0;left=0;bottom=0;right=0;pointerEvents=1;shadow=0;sketch=0;strokeWidth=1;fillColor=none;rounded=1;strokeColor=default;fontSize=12;fontColor=#000000;" parent="1387" vertex="1">
                    <mxGeometry x="210" width="30" height="40" as="geometry">
                        <mxRectangle width="30" height="40" as="alternateBounds"/>
                    </mxGeometry>
                </mxCell>
                <mxCell id="1396" style="shape=tableRow;horizontal=0;startSize=0;swimlaneHead=0;swimlaneBody=0;top=0;left=0;bottom=0;right=0;collapsible=0;dropTarget=0;fillColor=none;points=[[0,0.5],[1,0.5]];portConstraint=eastwest;shadow=0;sketch=0;strokeColor=default;strokeWidth=1;rounded=1;fontSize=12;fontColor=#000000;" parent="1386" vertex="1">
                    <mxGeometry y="40" width="240" height="40" as="geometry"/>
                </mxCell>
                <mxCell id="1397" style="shape=partialRectangle;html=1;whiteSpace=wrap;connectable=0;overflow=hidden;top=0;left=0;bottom=0;right=0;pointerEvents=1;shadow=0;sketch=0;strokeWidth=1;fillColor=none;rounded=1;strokeColor=default;fontSize=12;fontColor=#000000;" parent="1396" vertex="1">
                    <mxGeometry width="30" height="40" as="geometry">
                        <mxRectangle width="30" height="40" as="alternateBounds"/>
                    </mxGeometry>
                </mxCell>
                <mxCell id="1398" style="shape=partialRectangle;html=1;whiteSpace=wrap;connectable=0;overflow=hidden;top=0;left=0;bottom=0;right=0;pointerEvents=1;shadow=0;sketch=0;strokeWidth=1;fillColor=none;rounded=1;strokeColor=default;fontSize=12;fontColor=#000000;" parent="1396" vertex="1">
                    <mxGeometry x="30" width="30" height="40" as="geometry">
                        <mxRectangle width="30" height="40" as="alternateBounds"/>
                    </mxGeometry>
                </mxCell>
                <mxCell id="1399" style="shape=partialRectangle;html=1;whiteSpace=wrap;connectable=0;overflow=hidden;top=0;left=0;bottom=0;right=0;pointerEvents=1;shadow=0;sketch=0;strokeWidth=1;fillColor=none;rounded=1;strokeColor=default;fontSize=12;fontColor=#000000;" parent="1396" vertex="1">
                    <mxGeometry x="60" width="30" height="40" as="geometry">
                        <mxRectangle width="30" height="40" as="alternateBounds"/>
                    </mxGeometry>
                </mxCell>
                <mxCell id="1400" style="shape=partialRectangle;html=1;whiteSpace=wrap;connectable=0;overflow=hidden;top=0;left=0;bottom=0;right=0;pointerEvents=1;shadow=0;sketch=0;strokeWidth=1;fillColor=none;rounded=1;strokeColor=default;fontSize=12;fontColor=#000000;" parent="1396" vertex="1">
                    <mxGeometry x="90" width="30" height="40" as="geometry">
                        <mxRectangle width="30" height="40" as="alternateBounds"/>
                    </mxGeometry>
                </mxCell>
                <mxCell id="1401" style="shape=partialRectangle;html=1;whiteSpace=wrap;connectable=0;overflow=hidden;top=0;left=0;bottom=0;right=0;pointerEvents=1;shadow=0;sketch=0;strokeWidth=1;fillColor=none;rounded=1;strokeColor=default;fontSize=12;fontColor=#000000;" parent="1396" vertex="1">
                    <mxGeometry x="120" width="30" height="40" as="geometry">
                        <mxRectangle width="30" height="40" as="alternateBounds"/>
                    </mxGeometry>
                </mxCell>
                <mxCell id="1402" style="shape=partialRectangle;html=1;whiteSpace=wrap;connectable=0;overflow=hidden;top=0;left=0;bottom=0;right=0;pointerEvents=1;shadow=0;sketch=0;strokeWidth=1;fillColor=none;rounded=1;strokeColor=default;fontSize=12;fontColor=#000000;" parent="1396" vertex="1">
                    <mxGeometry x="150" width="30" height="40" as="geometry">
                        <mxRectangle width="30" height="40" as="alternateBounds"/>
                    </mxGeometry>
                </mxCell>
                <mxCell id="1403" style="shape=partialRectangle;html=1;whiteSpace=wrap;connectable=0;overflow=hidden;top=0;left=0;bottom=0;right=0;pointerEvents=1;shadow=0;sketch=0;strokeWidth=1;fillColor=none;rounded=1;strokeColor=default;fontSize=12;fontColor=#000000;" parent="1396" vertex="1">
                    <mxGeometry x="180" width="30" height="40" as="geometry">
                        <mxRectangle width="30" height="40" as="alternateBounds"/>
                    </mxGeometry>
                </mxCell>
                <mxCell id="1404" value="C" style="shape=partialRectangle;html=1;whiteSpace=wrap;connectable=0;overflow=hidden;top=0;left=0;bottom=0;right=0;pointerEvents=1;shadow=0;sketch=0;strokeWidth=1;fillColor=none;rounded=1;strokeColor=default;fontSize=12;fontColor=#000000;" parent="1396" vertex="1">
                    <mxGeometry x="210" width="30" height="40" as="geometry">
                        <mxRectangle width="30" height="40" as="alternateBounds"/>
                    </mxGeometry>
                </mxCell>
                <mxCell id="1405" style="shape=tableRow;horizontal=0;startSize=0;swimlaneHead=0;swimlaneBody=0;top=0;left=0;bottom=0;right=0;collapsible=0;dropTarget=0;fillColor=none;points=[[0,0.5],[1,0.5]];portConstraint=eastwest;shadow=0;sketch=0;strokeColor=default;strokeWidth=1;rounded=1;fontSize=12;fontColor=#000000;" parent="1386" vertex="1">
                    <mxGeometry y="80" width="240" height="40" as="geometry"/>
                </mxCell>
                <mxCell id="1406" style="shape=partialRectangle;html=1;whiteSpace=wrap;connectable=0;overflow=hidden;top=0;left=0;bottom=0;right=0;pointerEvents=1;shadow=0;sketch=0;strokeWidth=1;fillColor=none;rounded=1;strokeColor=default;fontSize=12;fontColor=#000000;" parent="1405" vertex="1">
                    <mxGeometry width="30" height="40" as="geometry">
                        <mxRectangle width="30" height="40" as="alternateBounds"/>
                    </mxGeometry>
                </mxCell>
                <mxCell id="1407" style="shape=partialRectangle;html=1;whiteSpace=wrap;connectable=0;overflow=hidden;top=0;left=0;bottom=0;right=0;pointerEvents=1;shadow=0;sketch=0;strokeWidth=1;fillColor=none;rounded=1;strokeColor=default;fontSize=12;fontColor=#000000;" parent="1405" vertex="1">
                    <mxGeometry x="30" width="30" height="40" as="geometry">
                        <mxRectangle width="30" height="40" as="alternateBounds"/>
                    </mxGeometry>
                </mxCell>
                <mxCell id="1408" style="shape=partialRectangle;html=1;whiteSpace=wrap;connectable=0;overflow=hidden;top=0;left=0;bottom=0;right=0;pointerEvents=1;shadow=0;sketch=0;strokeWidth=1;fillColor=none;rounded=1;strokeColor=default;fontSize=12;fontColor=#000000;" parent="1405" vertex="1">
                    <mxGeometry x="60" width="30" height="40" as="geometry">
                        <mxRectangle width="30" height="40" as="alternateBounds"/>
                    </mxGeometry>
                </mxCell>
                <mxCell id="1409" style="shape=partialRectangle;html=1;whiteSpace=wrap;connectable=0;overflow=hidden;top=0;left=0;bottom=0;right=0;pointerEvents=1;shadow=0;sketch=0;strokeWidth=1;fillColor=none;rounded=1;strokeColor=default;fontSize=12;fontColor=#000000;" parent="1405" vertex="1">
                    <mxGeometry x="90" width="30" height="40" as="geometry">
                        <mxRectangle width="30" height="40" as="alternateBounds"/>
                    </mxGeometry>
                </mxCell>
                <mxCell id="1410" style="shape=partialRectangle;html=1;whiteSpace=wrap;connectable=0;overflow=hidden;top=0;left=0;bottom=0;right=0;pointerEvents=1;shadow=0;sketch=0;strokeWidth=1;fillColor=none;rounded=1;strokeColor=default;fontSize=12;fontColor=#000000;" parent="1405" vertex="1">
                    <mxGeometry x="120" width="30" height="40" as="geometry">
                        <mxRectangle width="30" height="40" as="alternateBounds"/>
                    </mxGeometry>
                </mxCell>
                <mxCell id="1411" style="shape=partialRectangle;html=1;whiteSpace=wrap;connectable=0;overflow=hidden;top=0;left=0;bottom=0;right=0;pointerEvents=1;shadow=0;sketch=0;strokeWidth=1;fillColor=none;rounded=1;strokeColor=default;fontSize=12;fontColor=#000000;" parent="1405" vertex="1">
                    <mxGeometry x="150" width="30" height="40" as="geometry">
                        <mxRectangle width="30" height="40" as="alternateBounds"/>
                    </mxGeometry>
                </mxCell>
                <mxCell id="1412" value="B" style="shape=partialRectangle;html=1;whiteSpace=wrap;connectable=0;overflow=hidden;top=0;left=0;bottom=0;right=0;pointerEvents=1;shadow=0;sketch=0;strokeWidth=1;fillColor=none;rounded=1;strokeColor=default;fontSize=12;fontColor=#000000;" parent="1405" vertex="1">
                    <mxGeometry x="180" width="30" height="40" as="geometry">
                        <mxRectangle width="30" height="40" as="alternateBounds"/>
                    </mxGeometry>
                </mxCell>
                <mxCell id="1413" value="C" style="shape=partialRectangle;html=1;whiteSpace=wrap;connectable=0;overflow=hidden;top=0;left=0;bottom=0;right=0;pointerEvents=1;shadow=0;sketch=0;strokeWidth=1;fillColor=none;rounded=1;strokeColor=default;fontSize=12;fontColor=#000000;" parent="1405" vertex="1">
                    <mxGeometry x="210" width="30" height="40" as="geometry">
                        <mxRectangle width="30" height="40" as="alternateBounds"/>
                    </mxGeometry>
                </mxCell>
                <mxCell id="1414" style="shape=tableRow;horizontal=0;startSize=0;swimlaneHead=0;swimlaneBody=0;top=0;left=0;bottom=0;right=0;collapsible=0;dropTarget=0;fillColor=none;points=[[0,0.5],[1,0.5]];portConstraint=eastwest;shadow=0;sketch=0;strokeColor=default;strokeWidth=1;rounded=1;fontSize=12;fontColor=#000000;" parent="1386" vertex="1">
                    <mxGeometry y="120" width="240" height="40" as="geometry"/>
                </mxCell>
                <mxCell id="1415" style="shape=partialRectangle;html=1;whiteSpace=wrap;connectable=0;overflow=hidden;top=0;left=0;bottom=0;right=0;pointerEvents=1;shadow=0;sketch=0;strokeWidth=1;fillColor=none;rounded=1;strokeColor=default;fontSize=12;fontColor=#000000;" parent="1414" vertex="1">
                    <mxGeometry width="30" height="40" as="geometry">
                        <mxRectangle width="30" height="40" as="alternateBounds"/>
                    </mxGeometry>
                </mxCell>
                <mxCell id="1416" style="shape=partialRectangle;html=1;whiteSpace=wrap;connectable=0;overflow=hidden;top=0;left=0;bottom=0;right=0;pointerEvents=1;shadow=0;sketch=0;strokeWidth=1;fillColor=none;rounded=1;strokeColor=default;fontSize=12;fontColor=#000000;" parent="1414" vertex="1">
                    <mxGeometry x="30" width="30" height="40" as="geometry">
                        <mxRectangle width="30" height="40" as="alternateBounds"/>
                    </mxGeometry>
                </mxCell>
                <mxCell id="1417" style="shape=partialRectangle;html=1;whiteSpace=wrap;connectable=0;overflow=hidden;top=0;left=0;bottom=0;right=0;pointerEvents=1;shadow=0;sketch=0;strokeWidth=1;fillColor=none;rounded=1;strokeColor=default;fontSize=12;fontColor=#000000;" parent="1414" vertex="1">
                    <mxGeometry x="60" width="30" height="40" as="geometry">
                        <mxRectangle width="30" height="40" as="alternateBounds"/>
                    </mxGeometry>
                </mxCell>
                <mxCell id="1418" style="shape=partialRectangle;html=1;whiteSpace=wrap;connectable=0;overflow=hidden;top=0;left=0;bottom=0;right=0;pointerEvents=1;shadow=0;sketch=0;strokeWidth=1;fillColor=none;rounded=1;strokeColor=default;fontSize=12;fontColor=#000000;" parent="1414" vertex="1">
                    <mxGeometry x="90" width="30" height="40" as="geometry">
                        <mxRectangle width="30" height="40" as="alternateBounds"/>
                    </mxGeometry>
                </mxCell>
                <mxCell id="1419" style="shape=partialRectangle;html=1;whiteSpace=wrap;connectable=0;overflow=hidden;top=0;left=0;bottom=0;right=0;pointerEvents=1;shadow=0;sketch=0;strokeWidth=1;fillColor=none;rounded=1;strokeColor=default;fontSize=12;fontColor=#000000;" parent="1414" vertex="1">
                    <mxGeometry x="120" width="30" height="40" as="geometry">
                        <mxRectangle width="30" height="40" as="alternateBounds"/>
                    </mxGeometry>
                </mxCell>
                <mxCell id="1420" value="C" style="shape=partialRectangle;html=1;whiteSpace=wrap;connectable=0;overflow=hidden;top=0;left=0;bottom=0;right=0;pointerEvents=1;shadow=0;sketch=0;strokeWidth=1;fillColor=none;rounded=1;strokeColor=default;fontSize=12;fontColor=#000000;" parent="1414" vertex="1">
                    <mxGeometry x="150" width="30" height="40" as="geometry">
                        <mxRectangle width="30" height="40" as="alternateBounds"/>
                    </mxGeometry>
                </mxCell>
                <mxCell id="1421" value="B" style="shape=partialRectangle;html=1;whiteSpace=wrap;connectable=0;overflow=hidden;top=0;left=0;bottom=0;right=0;pointerEvents=1;shadow=0;sketch=0;strokeWidth=1;fillColor=none;rounded=1;strokeColor=default;fontSize=12;fontColor=#000000;" parent="1414" vertex="1">
                    <mxGeometry x="180" width="30" height="40" as="geometry">
                        <mxRectangle width="30" height="40" as="alternateBounds"/>
                    </mxGeometry>
                </mxCell>
                <mxCell id="1422" value="C" style="shape=partialRectangle;html=1;whiteSpace=wrap;connectable=0;overflow=hidden;top=0;left=0;bottom=0;right=0;pointerEvents=1;shadow=0;sketch=0;strokeWidth=1;fillColor=none;rounded=1;strokeColor=default;fontSize=12;fontColor=#000000;" parent="1414" vertex="1">
                    <mxGeometry x="210" width="30" height="40" as="geometry">
                        <mxRectangle width="30" height="40" as="alternateBounds"/>
                    </mxGeometry>
                </mxCell>
                <mxCell id="1423" style="shape=tableRow;horizontal=0;startSize=0;swimlaneHead=0;swimlaneBody=0;top=0;left=0;bottom=0;right=0;collapsible=0;dropTarget=0;fillColor=none;points=[[0,0.5],[1,0.5]];portConstraint=eastwest;shadow=0;sketch=0;strokeColor=default;strokeWidth=1;rounded=1;fontSize=12;fontColor=#000000;" parent="1386" vertex="1">
                    <mxGeometry y="160" width="240" height="40" as="geometry"/>
                </mxCell>
                <mxCell id="1424" style="shape=partialRectangle;html=1;whiteSpace=wrap;connectable=0;overflow=hidden;top=0;left=0;bottom=0;right=0;pointerEvents=1;shadow=0;sketch=0;strokeWidth=1;fillColor=none;rounded=1;strokeColor=default;fontSize=12;fontColor=#000000;" parent="1423" vertex="1">
                    <mxGeometry width="30" height="40" as="geometry">
                        <mxRectangle width="30" height="40" as="alternateBounds"/>
                    </mxGeometry>
                </mxCell>
                <mxCell id="1425" style="shape=partialRectangle;html=1;whiteSpace=wrap;connectable=0;overflow=hidden;top=0;left=0;bottom=0;right=0;pointerEvents=1;shadow=0;sketch=0;strokeWidth=1;fillColor=none;rounded=1;strokeColor=default;fontSize=12;fontColor=#000000;" parent="1423" vertex="1">
                    <mxGeometry x="30" width="30" height="40" as="geometry">
                        <mxRectangle width="30" height="40" as="alternateBounds"/>
                    </mxGeometry>
                </mxCell>
                <mxCell id="1426" style="shape=partialRectangle;html=1;whiteSpace=wrap;connectable=0;overflow=hidden;top=0;left=0;bottom=0;right=0;pointerEvents=1;shadow=0;sketch=0;strokeWidth=1;fillColor=none;rounded=1;strokeColor=default;fontSize=12;fontColor=#000000;" parent="1423" vertex="1">
                    <mxGeometry x="60" width="30" height="40" as="geometry">
                        <mxRectangle width="30" height="40" as="alternateBounds"/>
                    </mxGeometry>
                </mxCell>
                <mxCell id="1427" style="shape=partialRectangle;html=1;whiteSpace=wrap;connectable=0;overflow=hidden;top=0;left=0;bottom=0;right=0;pointerEvents=1;shadow=0;sketch=0;strokeWidth=1;fillColor=none;rounded=1;strokeColor=default;fontSize=12;fontColor=#000000;" parent="1423" vertex="1">
                    <mxGeometry x="90" width="30" height="40" as="geometry">
                        <mxRectangle width="30" height="40" as="alternateBounds"/>
                    </mxGeometry>
                </mxCell>
                <mxCell id="1428" value="B" style="shape=partialRectangle;html=1;whiteSpace=wrap;connectable=0;overflow=hidden;top=0;left=0;bottom=0;right=0;pointerEvents=1;shadow=0;sketch=0;strokeWidth=1;fillColor=none;rounded=1;strokeColor=default;fontSize=12;fontColor=#000000;" parent="1423" vertex="1">
                    <mxGeometry x="120" width="30" height="40" as="geometry">
                        <mxRectangle width="30" height="40" as="alternateBounds"/>
                    </mxGeometry>
                </mxCell>
                <mxCell id="1429" value="C" style="shape=partialRectangle;html=1;whiteSpace=wrap;connectable=0;overflow=hidden;top=0;left=0;bottom=0;right=0;pointerEvents=1;shadow=0;sketch=0;strokeWidth=1;fillColor=none;rounded=1;strokeColor=default;fontSize=12;fontColor=#000000;" parent="1423" vertex="1">
                    <mxGeometry x="150" width="30" height="40" as="geometry">
                        <mxRectangle width="30" height="40" as="alternateBounds"/>
                    </mxGeometry>
                </mxCell>
                <mxCell id="1430" value="B" style="shape=partialRectangle;html=1;whiteSpace=wrap;connectable=0;overflow=hidden;top=0;left=0;bottom=0;right=0;pointerEvents=1;shadow=0;sketch=0;strokeWidth=1;fillColor=none;rounded=1;strokeColor=default;fontSize=12;fontColor=#000000;" parent="1423" vertex="1">
                    <mxGeometry x="180" width="30" height="40" as="geometry">
                        <mxRectangle width="30" height="40" as="alternateBounds"/>
                    </mxGeometry>
                </mxCell>
                <mxCell id="1431" value="C" style="shape=partialRectangle;html=1;whiteSpace=wrap;connectable=0;overflow=hidden;top=0;left=0;bottom=0;right=0;pointerEvents=1;shadow=0;sketch=0;strokeWidth=1;fillColor=none;rounded=1;strokeColor=default;fontSize=12;fontColor=#000000;" parent="1423" vertex="1">
                    <mxGeometry x="210" width="30" height="40" as="geometry">
                        <mxRectangle width="30" height="40" as="alternateBounds"/>
                    </mxGeometry>
                </mxCell>
                <mxCell id="1432" style="shape=tableRow;horizontal=0;startSize=0;swimlaneHead=0;swimlaneBody=0;top=0;left=0;bottom=0;right=0;collapsible=0;dropTarget=0;fillColor=none;points=[[0,0.5],[1,0.5]];portConstraint=eastwest;shadow=0;sketch=0;strokeColor=default;strokeWidth=1;rounded=1;fontSize=12;fontColor=#000000;" parent="1386" vertex="1">
                    <mxGeometry y="200" width="240" height="40" as="geometry"/>
                </mxCell>
                <mxCell id="1433" style="shape=partialRectangle;html=1;whiteSpace=wrap;connectable=0;overflow=hidden;top=0;left=0;bottom=0;right=0;pointerEvents=1;shadow=0;sketch=0;strokeWidth=1;fillColor=none;rounded=1;strokeColor=default;fontSize=12;fontColor=#000000;" parent="1432" vertex="1">
                    <mxGeometry width="30" height="40" as="geometry">
                        <mxRectangle width="30" height="40" as="alternateBounds"/>
                    </mxGeometry>
                </mxCell>
                <mxCell id="1434" style="shape=partialRectangle;html=1;whiteSpace=wrap;connectable=0;overflow=hidden;top=0;left=0;bottom=0;right=0;pointerEvents=1;shadow=0;sketch=0;strokeWidth=1;fillColor=none;rounded=1;strokeColor=default;fontSize=12;fontColor=#000000;" parent="1432" vertex="1">
                    <mxGeometry x="30" width="30" height="40" as="geometry">
                        <mxRectangle width="30" height="40" as="alternateBounds"/>
                    </mxGeometry>
                </mxCell>
                <mxCell id="1435" style="shape=partialRectangle;html=1;whiteSpace=wrap;connectable=0;overflow=hidden;top=0;left=0;bottom=0;right=0;pointerEvents=1;shadow=0;sketch=0;strokeWidth=1;fillColor=none;rounded=1;strokeColor=default;fontSize=12;fontColor=#000000;" parent="1432" vertex="1">
                    <mxGeometry x="60" width="30" height="40" as="geometry">
                        <mxRectangle width="30" height="40" as="alternateBounds"/>
                    </mxGeometry>
                </mxCell>
                <mxCell id="1436" value="C" style="shape=partialRectangle;html=1;whiteSpace=wrap;connectable=0;overflow=hidden;top=0;left=0;bottom=0;right=0;pointerEvents=1;shadow=0;sketch=0;strokeWidth=1;fillColor=none;rounded=1;strokeColor=default;fontSize=12;fontColor=#000000;" parent="1432" vertex="1">
                    <mxGeometry x="90" width="30" height="40" as="geometry">
                        <mxRectangle width="30" height="40" as="alternateBounds"/>
                    </mxGeometry>
                </mxCell>
                <mxCell id="1437" value="B" style="shape=partialRectangle;html=1;whiteSpace=wrap;connectable=0;overflow=hidden;top=0;left=0;bottom=0;right=0;pointerEvents=1;shadow=0;sketch=0;strokeWidth=1;fillColor=none;rounded=1;strokeColor=default;fontSize=12;fontColor=#000000;" parent="1432" vertex="1">
                    <mxGeometry x="120" width="30" height="40" as="geometry">
                        <mxRectangle width="30" height="40" as="alternateBounds"/>
                    </mxGeometry>
                </mxCell>
                <mxCell id="1438" value="C" style="shape=partialRectangle;html=1;whiteSpace=wrap;connectable=0;overflow=hidden;top=0;left=0;bottom=0;right=0;pointerEvents=1;shadow=0;sketch=0;strokeWidth=1;fillColor=none;rounded=1;strokeColor=default;fontSize=12;fontColor=#000000;" parent="1432" vertex="1">
                    <mxGeometry x="150" width="30" height="40" as="geometry">
                        <mxRectangle width="30" height="40" as="alternateBounds"/>
                    </mxGeometry>
                </mxCell>
                <mxCell id="1439" value="B" style="shape=partialRectangle;html=1;whiteSpace=wrap;connectable=0;overflow=hidden;top=0;left=0;bottom=0;right=0;pointerEvents=1;shadow=0;sketch=0;strokeWidth=1;fillColor=none;rounded=1;strokeColor=default;fontSize=12;fontColor=#000000;" parent="1432" vertex="1">
                    <mxGeometry x="180" width="30" height="40" as="geometry">
                        <mxRectangle width="30" height="40" as="alternateBounds"/>
                    </mxGeometry>
                </mxCell>
                <mxCell id="1440" value="C" style="shape=partialRectangle;html=1;whiteSpace=wrap;connectable=0;overflow=hidden;top=0;left=0;bottom=0;right=0;pointerEvents=1;shadow=0;sketch=0;strokeWidth=1;fillColor=none;rounded=1;strokeColor=default;fontSize=12;fontColor=#000000;" parent="1432" vertex="1">
                    <mxGeometry x="210" width="30" height="40" as="geometry">
                        <mxRectangle width="30" height="40" as="alternateBounds"/>
                    </mxGeometry>
                </mxCell>
                <mxCell id="1441" style="shape=tableRow;horizontal=0;startSize=0;swimlaneHead=0;swimlaneBody=0;top=0;left=0;bottom=0;right=0;collapsible=0;dropTarget=0;fillColor=none;points=[[0,0.5],[1,0.5]];portConstraint=eastwest;shadow=0;sketch=0;strokeColor=default;strokeWidth=1;rounded=1;fontSize=12;fontColor=#000000;" parent="1386" vertex="1">
                    <mxGeometry y="240" width="240" height="40" as="geometry"/>
                </mxCell>
                <mxCell id="1442" style="shape=partialRectangle;html=1;whiteSpace=wrap;connectable=0;overflow=hidden;top=0;left=0;bottom=0;right=0;pointerEvents=1;shadow=0;sketch=0;strokeWidth=1;fillColor=none;rounded=1;strokeColor=default;fontSize=12;fontColor=#000000;" parent="1441" vertex="1">
                    <mxGeometry width="30" height="40" as="geometry">
                        <mxRectangle width="30" height="40" as="alternateBounds"/>
                    </mxGeometry>
                </mxCell>
                <mxCell id="1443" style="shape=partialRectangle;html=1;whiteSpace=wrap;connectable=0;overflow=hidden;top=0;left=0;bottom=0;right=0;pointerEvents=1;shadow=0;sketch=0;strokeWidth=1;fillColor=none;rounded=1;strokeColor=default;fontSize=12;fontColor=#000000;" parent="1441" vertex="1">
                    <mxGeometry x="30" width="30" height="40" as="geometry">
                        <mxRectangle width="30" height="40" as="alternateBounds"/>
                    </mxGeometry>
                </mxCell>
                <mxCell id="1444" value="A" style="shape=partialRectangle;html=1;whiteSpace=wrap;connectable=0;overflow=hidden;top=0;left=0;bottom=0;right=0;pointerEvents=1;shadow=0;sketch=0;strokeWidth=1;fillColor=none;rounded=1;strokeColor=default;fontSize=12;fontColor=#000000;" parent="1441" vertex="1">
                    <mxGeometry x="60" width="30" height="40" as="geometry">
                        <mxRectangle width="30" height="40" as="alternateBounds"/>
                    </mxGeometry>
                </mxCell>
                <mxCell id="1445" value="C" style="shape=partialRectangle;html=1;whiteSpace=wrap;connectable=0;overflow=hidden;top=0;left=0;bottom=0;right=0;pointerEvents=1;shadow=0;sketch=0;strokeWidth=1;fillColor=none;rounded=1;strokeColor=default;fontSize=12;fontColor=#000000;" parent="1441" vertex="1">
                    <mxGeometry x="90" width="30" height="40" as="geometry">
                        <mxRectangle width="30" height="40" as="alternateBounds"/>
                    </mxGeometry>
                </mxCell>
                <mxCell id="1446" value="B" style="shape=partialRectangle;html=1;whiteSpace=wrap;connectable=0;overflow=hidden;top=0;left=0;bottom=0;right=0;pointerEvents=1;shadow=0;sketch=0;strokeWidth=1;fillColor=none;rounded=1;strokeColor=default;fontSize=12;fontColor=#000000;" parent="1441" vertex="1">
                    <mxGeometry x="120" width="30" height="40" as="geometry">
                        <mxRectangle width="30" height="40" as="alternateBounds"/>
                    </mxGeometry>
                </mxCell>
                <mxCell id="1447" value="C" style="shape=partialRectangle;html=1;whiteSpace=wrap;connectable=0;overflow=hidden;top=0;left=0;bottom=0;right=0;pointerEvents=1;shadow=0;sketch=0;strokeWidth=1;fillColor=none;rounded=1;strokeColor=default;fontSize=12;fontColor=#000000;" parent="1441" vertex="1">
                    <mxGeometry x="150" width="30" height="40" as="geometry">
                        <mxRectangle width="30" height="40" as="alternateBounds"/>
                    </mxGeometry>
                </mxCell>
                <mxCell id="1448" value="B" style="shape=partialRectangle;html=1;whiteSpace=wrap;connectable=0;overflow=hidden;top=0;left=0;bottom=0;right=0;pointerEvents=1;shadow=0;sketch=0;strokeWidth=1;fillColor=none;rounded=1;strokeColor=default;fontSize=12;fontColor=#000000;" parent="1441" vertex="1">
                    <mxGeometry x="180" width="30" height="40" as="geometry">
                        <mxRectangle width="30" height="40" as="alternateBounds"/>
                    </mxGeometry>
                </mxCell>
                <mxCell id="1449" value="C" style="shape=partialRectangle;html=1;whiteSpace=wrap;connectable=0;overflow=hidden;top=0;left=0;bottom=0;right=0;pointerEvents=1;shadow=0;sketch=0;strokeWidth=1;fillColor=none;rounded=1;strokeColor=default;fontSize=12;fontColor=#000000;" parent="1441" vertex="1">
                    <mxGeometry x="210" width="30" height="40" as="geometry">
                        <mxRectangle width="30" height="40" as="alternateBounds"/>
                    </mxGeometry>
                </mxCell>
                <mxCell id="1450" style="shape=tableRow;horizontal=0;startSize=0;swimlaneHead=0;swimlaneBody=0;top=0;left=0;bottom=0;right=0;collapsible=0;dropTarget=0;fillColor=none;points=[[0,0.5],[1,0.5]];portConstraint=eastwest;shadow=0;sketch=0;strokeColor=default;strokeWidth=1;rounded=1;fontSize=12;fontColor=#000000;" parent="1386" vertex="1">
                    <mxGeometry y="280" width="240" height="40" as="geometry"/>
                </mxCell>
                <mxCell id="1451" style="shape=partialRectangle;html=1;whiteSpace=wrap;connectable=0;overflow=hidden;top=0;left=0;bottom=0;right=0;pointerEvents=1;shadow=0;sketch=0;strokeWidth=1;fillColor=none;rounded=1;strokeColor=default;fontSize=12;fontColor=#000000;" parent="1450" vertex="1">
                    <mxGeometry width="30" height="40" as="geometry">
                        <mxRectangle width="30" height="40" as="alternateBounds"/>
                    </mxGeometry>
                </mxCell>
                <mxCell id="1452" value="C" style="shape=partialRectangle;html=1;whiteSpace=wrap;connectable=0;overflow=hidden;top=0;left=0;bottom=0;right=0;pointerEvents=1;shadow=0;sketch=0;strokeWidth=1;fillColor=none;rounded=1;strokeColor=default;fontSize=12;fontColor=#000000;" parent="1450" vertex="1">
                    <mxGeometry x="30" width="30" height="40" as="geometry">
                        <mxRectangle width="30" height="40" as="alternateBounds"/>
                    </mxGeometry>
                </mxCell>
                <mxCell id="1453" value="A" style="shape=partialRectangle;html=1;whiteSpace=wrap;connectable=0;overflow=hidden;top=0;left=0;bottom=0;right=0;pointerEvents=1;shadow=0;sketch=0;strokeWidth=1;fillColor=none;rounded=1;strokeColor=default;fontSize=12;fontColor=#000000;" parent="1450" vertex="1">
                    <mxGeometry x="60" width="30" height="40" as="geometry">
                        <mxRectangle width="30" height="40" as="alternateBounds"/>
                    </mxGeometry>
                </mxCell>
                <mxCell id="1454" value="C" style="shape=partialRectangle;html=1;whiteSpace=wrap;connectable=0;overflow=hidden;top=0;left=0;bottom=0;right=0;pointerEvents=1;shadow=0;sketch=0;strokeWidth=1;fillColor=none;rounded=1;strokeColor=default;fontSize=12;fontColor=#000000;" parent="1450" vertex="1">
                    <mxGeometry x="90" width="30" height="40" as="geometry">
                        <mxRectangle width="30" height="40" as="alternateBounds"/>
                    </mxGeometry>
                </mxCell>
                <mxCell id="1455" value="B" style="shape=partialRectangle;html=1;whiteSpace=wrap;connectable=0;overflow=hidden;top=0;left=0;bottom=0;right=0;pointerEvents=1;shadow=0;sketch=0;strokeWidth=1;fillColor=none;rounded=1;strokeColor=default;fontSize=12;fontColor=#000000;" parent="1450" vertex="1">
                    <mxGeometry x="120" width="30" height="40" as="geometry">
                        <mxRectangle width="30" height="40" as="alternateBounds"/>
                    </mxGeometry>
                </mxCell>
                <mxCell id="1456" value="C" style="shape=partialRectangle;html=1;whiteSpace=wrap;connectable=0;overflow=hidden;top=0;left=0;bottom=0;right=0;pointerEvents=1;shadow=0;sketch=0;strokeWidth=1;fillColor=none;rounded=1;strokeColor=default;fontSize=12;fontColor=#000000;" parent="1450" vertex="1">
                    <mxGeometry x="150" width="30" height="40" as="geometry">
                        <mxRectangle width="30" height="40" as="alternateBounds"/>
                    </mxGeometry>
                </mxCell>
                <mxCell id="1457" value="B" style="shape=partialRectangle;html=1;whiteSpace=wrap;connectable=0;overflow=hidden;top=0;left=0;bottom=0;right=0;pointerEvents=1;shadow=0;sketch=0;strokeWidth=1;fillColor=none;rounded=1;strokeColor=default;fontSize=12;fontColor=#000000;" parent="1450" vertex="1">
                    <mxGeometry x="180" width="30" height="40" as="geometry">
                        <mxRectangle width="30" height="40" as="alternateBounds"/>
                    </mxGeometry>
                </mxCell>
                <mxCell id="1458" value="C" style="shape=partialRectangle;html=1;whiteSpace=wrap;connectable=0;overflow=hidden;top=0;left=0;bottom=0;right=0;pointerEvents=1;shadow=0;sketch=0;strokeWidth=1;fillColor=none;rounded=1;strokeColor=default;fontSize=12;fontColor=#000000;" parent="1450" vertex="1">
                    <mxGeometry x="210" width="30" height="40" as="geometry">
                        <mxRectangle width="30" height="40" as="alternateBounds"/>
                    </mxGeometry>
                </mxCell>
                <mxCell id="1459" value="Good-suffix Situation" style="text;strokeColor=none;fillColor=none;html=1;fontSize=24;fontStyle=1;verticalAlign=middle;align=center;rounded=1;fontColor=#000000;" parent="1" vertex="1">
                    <mxGeometry x="320" y="320" width="238" height="40" as="geometry"/>
                </mxCell>
                <mxCell id="1460" value="如果没有好后缀，那就给个最差偏移：1，这样可以让坏字符规则胜出，此时的Z值用不到" style="text;html=1;strokeColor=none;fillColor=none;align=left;verticalAlign=middle;whiteSpace=wrap;rounded=0;fontColor=#000000;fontSize=12;" parent="1" vertex="1">
                    <mxGeometry x="670" y="365" width="190" height="30" as="geometry"/>
                </mxCell>
                <mxCell id="1461" value="Shift（Use Z）" style="text;html=1;strokeColor=none;fillColor=none;align=center;verticalAlign=middle;whiteSpace=wrap;rounded=1;fontStyle=1;fontSize=24;fontColor=#000000;" parent="1" vertex="1">
                    <mxGeometry x="602" y="325" width="178" height="30" as="geometry"/>
                </mxCell>
                <mxCell id="1462" value="&lt;span style=&quot;&quot;&gt;1&lt;/span&gt;" style="text;html=1;strokeColor=none;fillColor=none;align=center;verticalAlign=middle;whiteSpace=wrap;rounded=1;fontStyle=1;fontSize=24;fontColor=#000000;" parent="1" vertex="1">
                    <mxGeometry x="602" y="360" width="90" height="40" as="geometry"/>
                </mxCell>
                <mxCell id="1463" value="&lt;span style=&quot;&quot;&gt;1+4&lt;/span&gt;" style="text;html=1;strokeColor=none;fillColor=none;align=center;verticalAlign=middle;whiteSpace=wrap;rounded=1;fontStyle=1;fontSize=24;fontColor=#000000;" parent="1" vertex="1">
                    <mxGeometry x="602" y="400" width="90" height="40" as="geometry"/>
                </mxCell>
                <mxCell id="1464" value="&lt;span style=&quot;&quot;&gt;2+6&lt;/span&gt;" style="text;html=1;strokeColor=none;fillColor=none;align=center;verticalAlign=middle;whiteSpace=wrap;rounded=1;fontStyle=1;fontSize=24;fontColor=#000000;" parent="1" vertex="1">
                    <mxGeometry x="602" y="440" width="90" height="40" as="geometry"/>
                </mxCell>
                <mxCell id="1465" value="&lt;span style=&quot;&quot;&gt;3+2&lt;/span&gt;" style="text;html=1;strokeColor=none;fillColor=none;align=center;verticalAlign=middle;whiteSpace=wrap;rounded=1;fontStyle=1;fontSize=24;fontColor=#000000;" parent="1" vertex="1">
                    <mxGeometry x="602" y="480" width="90" height="40" as="geometry"/>
                </mxCell>
                <mxCell id="1466" value="&lt;span style=&quot;&quot;&gt;12&lt;/span&gt;" style="text;html=1;strokeColor=none;fillColor=none;align=center;verticalAlign=middle;whiteSpace=wrap;rounded=1;fontStyle=1;fontSize=24;fontColor=#000000;" parent="1" vertex="1">
                    <mxGeometry x="602" y="520" width="90" height="40" as="geometry"/>
                </mxCell>
                <mxCell id="1467" value="&lt;span style=&quot;&quot;&gt;13&lt;/span&gt;" style="text;html=1;strokeColor=none;fillColor=none;align=center;verticalAlign=middle;whiteSpace=wrap;rounded=1;fontStyle=1;fontSize=24;fontColor=#000000;" parent="1" vertex="1">
                    <mxGeometry x="602" y="560" width="90" height="40" as="geometry"/>
                </mxCell>
                <mxCell id="1468" value="&lt;span style=&quot;&quot;&gt;14&lt;/span&gt;" style="text;html=1;strokeColor=none;fillColor=none;align=center;verticalAlign=middle;whiteSpace=wrap;rounded=1;fontStyle=1;fontSize=24;fontColor=#000000;" parent="1" vertex="1">
                    <mxGeometry x="602" y="600" width="90" height="40" as="geometry"/>
                </mxCell>
                <mxCell id="1469" value="&lt;span style=&quot;&quot;&gt;15&lt;/span&gt;" style="text;html=1;strokeColor=none;fillColor=none;align=center;verticalAlign=middle;whiteSpace=wrap;rounded=1;fontStyle=1;fontSize=24;fontColor=#000000;" parent="1" vertex="1">
                    <mxGeometry x="602" y="640" width="90" height="40" as="geometry"/>
                </mxCell>
                <mxCell id="1470" value="Z" style="text;html=1;strokeColor=none;fillColor=none;align=center;verticalAlign=middle;whiteSpace=wrap;rounded=1;fontStyle=1;fontSize=24;fontColor=#000000;" parent="1" vertex="1">
                    <mxGeometry x="870" y="238" width="90" height="30" as="geometry"/>
                </mxCell>
                <mxCell id="1471" value="" style="shape=table;startSize=0;container=1;collapsible=0;childLayout=tableLayout;rounded=1;strokeColor=default;fontSize=12;fontColor=#000000;fillColor=none;gradientColor=none;" parent="1" vertex="1">
                    <mxGeometry x="900" y="278" width="240" height="40" as="geometry"/>
                </mxCell>
                <mxCell id="1472" value="" style="shape=tableRow;horizontal=0;startSize=0;swimlaneHead=0;swimlaneBody=0;top=0;left=0;bottom=0;right=0;collapsible=0;dropTarget=0;fillColor=none;points=[[0,0.5],[1,0.5]];portConstraint=eastwest;rounded=1;strokeColor=default;fontSize=12;fontColor=#000000;" parent="1471" vertex="1">
                    <mxGeometry width="240" height="40" as="geometry"/>
                </mxCell>
                <mxCell id="1473" value="0/8" style="shape=partialRectangle;html=1;whiteSpace=wrap;connectable=0;overflow=hidden;fillColor=none;top=0;left=0;bottom=0;right=0;pointerEvents=1;rounded=1;strokeColor=default;fontSize=12;fontColor=#000000;" parent="1472" vertex="1">
                    <mxGeometry width="30" height="40" as="geometry">
                        <mxRectangle width="30" height="40" as="alternateBounds"/>
                    </mxGeometry>
                </mxCell>
                <mxCell id="1545" value="0" style="shape=partialRectangle;html=1;whiteSpace=wrap;connectable=0;overflow=hidden;fillColor=none;top=0;left=0;bottom=0;right=0;pointerEvents=1;rounded=1;strokeColor=default;fontSize=12;fontColor=#000000;" parent="1472" vertex="1">
                    <mxGeometry x="30" width="30" height="40" as="geometry">
                        <mxRectangle width="30" height="40" as="alternateBounds"/>
                    </mxGeometry>
                </mxCell>
                <mxCell id="1553" value="3" style="shape=partialRectangle;html=1;whiteSpace=wrap;connectable=0;overflow=hidden;fillColor=none;top=0;left=0;bottom=0;right=0;pointerEvents=1;rounded=1;strokeColor=default;fontSize=12;fontColor=#000000;" parent="1472" vertex="1">
                    <mxGeometry x="60" width="30" height="40" as="geometry">
                        <mxRectangle width="30" height="40" as="alternateBounds"/>
                    </mxGeometry>
                </mxCell>
                <mxCell id="1561" value="0" style="shape=partialRectangle;html=1;whiteSpace=wrap;connectable=0;overflow=hidden;fillColor=none;top=0;left=0;bottom=0;right=0;pointerEvents=1;rounded=1;strokeColor=default;fontSize=12;fontColor=#000000;" parent="1472" vertex="1">
                    <mxGeometry x="90" width="30" height="40" as="geometry">
                        <mxRectangle width="30" height="40" as="alternateBounds"/>
                    </mxGeometry>
                </mxCell>
                <mxCell id="1569" value="1" style="shape=partialRectangle;html=1;whiteSpace=wrap;connectable=0;overflow=hidden;fillColor=none;top=0;left=0;bottom=0;right=0;pointerEvents=1;rounded=1;strokeColor=default;fontSize=12;fontColor=#000000;" parent="1472" vertex="1">
                    <mxGeometry x="120" width="30" height="40" as="geometry">
                        <mxRectangle width="30" height="40" as="alternateBounds"/>
                    </mxGeometry>
                </mxCell>
                <mxCell id="1577" value="0" style="shape=partialRectangle;html=1;whiteSpace=wrap;connectable=0;overflow=hidden;fillColor=none;top=0;left=0;bottom=0;right=0;pointerEvents=1;rounded=1;strokeColor=default;fontSize=12;fontColor=#000000;" parent="1472" vertex="1">
                    <mxGeometry x="150" width="30" height="40" as="geometry">
                        <mxRectangle width="30" height="40" as="alternateBounds"/>
                    </mxGeometry>
                </mxCell>
                <mxCell id="1585" value="2" style="shape=partialRectangle;html=1;whiteSpace=wrap;connectable=0;overflow=hidden;fillColor=#1ba1e2;top=0;left=0;bottom=0;right=0;pointerEvents=1;rounded=1;strokeColor=#006EAF;fontSize=12;fontColor=#FFFFFF;" parent="1472" vertex="1">
                    <mxGeometry x="180" width="30" height="40" as="geometry">
                        <mxRectangle width="30" height="40" as="alternateBounds"/>
                    </mxGeometry>
                </mxCell>
                <mxCell id="1593" value="0" style="shape=partialRectangle;html=1;whiteSpace=wrap;connectable=0;overflow=hidden;fillColor=none;top=0;left=0;bottom=0;right=0;pointerEvents=1;rounded=1;strokeColor=default;fontSize=12;fontColor=#000000;" parent="1472" vertex="1">
                    <mxGeometry x="210" width="30" height="40" as="geometry">
                        <mxRectangle width="30" height="40" as="alternateBounds"/>
                    </mxGeometry>
                </mxCell>
                <mxCell id="1488" value="这是个前缀，因此大于2的好后缀需要更新最小值" style="text;html=1;strokeColor=none;fillColor=none;align=left;verticalAlign=middle;whiteSpace=wrap;rounded=0;fontColor=#000000;fontSize=12;" parent="1" vertex="1">
                    <mxGeometry x="692" y="605" width="190" height="30" as="geometry"/>
                </mxCell>
                <mxCell id="1682" value="Shift（Use prefix）" style="text;html=1;strokeColor=none;fillColor=none;align=center;verticalAlign=middle;whiteSpace=wrap;rounded=1;fontStyle=1;fontSize=24;fontColor=#000000;" parent="1" vertex="1">
                    <mxGeometry x="900" y="325" width="220" height="30" as="geometry"/>
                </mxCell>
                <mxCell id="1683" value="&lt;span style=&quot;&quot;&gt;1&lt;/span&gt;" style="text;html=1;strokeColor=none;fillColor=none;align=center;verticalAlign=middle;whiteSpace=wrap;rounded=1;fontStyle=1;fontSize=24;fontColor=#000000;" parent="1" vertex="1">
                    <mxGeometry x="900" y="360" width="90" height="40" as="geometry"/>
                </mxCell>
                <mxCell id="1684" value="&lt;span style=&quot;&quot;&gt;5&lt;/span&gt;" style="text;html=1;strokeColor=none;fillColor=none;align=center;verticalAlign=middle;whiteSpace=wrap;rounded=1;fontStyle=1;fontSize=24;fontColor=#000000;" parent="1" vertex="1">
                    <mxGeometry x="900" y="400" width="90" height="40" as="geometry"/>
                </mxCell>
                <mxCell id="1685" value="&lt;span style=&quot;&quot;&gt;8&lt;/span&gt;" style="text;html=1;strokeColor=none;fillColor=none;align=center;verticalAlign=middle;whiteSpace=wrap;rounded=1;fontStyle=1;fontSize=24;fontColor=#000000;" parent="1" vertex="1">
                    <mxGeometry x="900" y="440" width="90" height="40" as="geometry"/>
                </mxCell>
                <mxCell id="1686" value="&lt;span style=&quot;&quot;&gt;Min(5, 3+6)&lt;/span&gt;" style="text;html=1;strokeColor=none;fillColor=none;align=center;verticalAlign=middle;whiteSpace=wrap;rounded=1;fontStyle=1;fontSize=24;fontColor=#000000;" parent="1" vertex="1">
                    <mxGeometry x="900" y="480" width="130" height="40" as="geometry"/>
                </mxCell>
                <mxCell id="1687" value="&lt;span style=&quot;&quot;&gt;Min(12, 4+6)&lt;/span&gt;" style="text;html=1;strokeColor=none;fillColor=none;align=center;verticalAlign=middle;whiteSpace=wrap;rounded=1;fontStyle=1;fontSize=24;fontColor=#000000;" parent="1" vertex="1">
                    <mxGeometry x="897" y="520" width="150" height="40" as="geometry"/>
                </mxCell>
                <mxCell id="1688" value="&lt;span style=&quot;&quot;&gt;Min(13, 5+6)&lt;/span&gt;" style="text;html=1;strokeColor=none;fillColor=none;align=center;verticalAlign=middle;whiteSpace=wrap;rounded=1;fontStyle=1;fontSize=24;fontColor=#000000;" parent="1" vertex="1">
                    <mxGeometry x="896" y="560" width="150" height="40" as="geometry"/>
                </mxCell>
                <mxCell id="1689" value="&lt;span style=&quot;&quot;&gt;Min(14, 6+6)&lt;/span&gt;" style="text;html=1;strokeColor=none;fillColor=none;align=center;verticalAlign=middle;whiteSpace=wrap;rounded=1;fontStyle=1;fontSize=24;fontColor=#000000;" parent="1" vertex="1">
                    <mxGeometry x="896" y="600" width="150" height="40" as="geometry"/>
                </mxCell>
                <mxCell id="1690" value="&lt;span style=&quot;&quot;&gt;Min(15, 7+6)&lt;/span&gt;" style="text;html=1;strokeColor=none;fillColor=none;align=center;verticalAlign=middle;whiteSpace=wrap;rounded=1;fontStyle=1;fontSize=24;fontColor=#000000;" parent="1" vertex="1">
                    <mxGeometry x="896" y="640" width="150" height="40" as="geometry"/>
                </mxCell>
                <mxCell id="1692" value="循环Z，发现Z(6)+6=8&lt;br&gt;更新比Z(6)大的好前缀偏移（取最小）" style="shape=callout;whiteSpace=wrap;html=1;perimeter=calloutPerimeter;rounded=1;strokeColor=default;fontSize=12;fontColor=#000000;fillColor=none;gradientColor=none;spacingTop=0;spacingLeft=0;align=center;spacing=12;" parent="1" vertex="1">
                    <mxGeometry x="1020" y="198" width="155" height="80" as="geometry"/>
                </mxCell>
            </root>
        </mxGraphModel>
    </diagram>
</mxfile>